grf
version=1
nRows=11
nColumns=46
inDegrees=yes
endheader
time	ground_force_1_vx	ground_force_1_vy	ground_force_1_vz	ground_force_1_px	ground_force_1_py	ground_force_1_pz	ground_moment_1_mx	ground_moment_1_my	ground_moment_1_mz	ground_force_2_vx	ground_force_2_vy	ground_force_2_vz	ground_force_2_px	ground_force_2_py	ground_force_2_pz	ground_moment_2_mx	ground_moment_2_my	ground_moment_2_mz	ground_force_3_vx	ground_force_3_vy	ground_force_3_vz	ground_force_3_px	ground_force_3_py	ground_force_3_pz	ground_moment_3_mx	ground_moment_3_my	ground_moment_3_mz	ground_force_4_vx	ground_force_4_vy	ground_force_4_vz	ground_force_4_px	ground_force_4_py	ground_force_4_pz	ground_moment_4_mx	ground_moment_4_my	ground_moment_4_mz	ground_force_5_vx	ground_force_5_vy	ground_force_5_vz	ground_force_5_px	ground_force_5_py	ground_force_5_pz	ground_moment_5_mx	ground_moment_5_my	ground_moment_5_mz
1.255000	0.000000	0.000000	0.000000	0.000000	0.000000	0.000000	0.000000	0.000000	0.000000	0.000000	0.000000	0.000000	0.000000	0.000000	0.000000	0.000000	0.000000	0.000000	150.606656	535.515296	-8.097214	0.235949	0.000000	0.178875	-0.000000	1.313390	0.000000	-44.752689	290.387296	-24.371472	0.848252	0.000000	0.105093	-0.000000	-0.362361	0.000000	0.000000	0.000000	0.000000	0.000000	0.000000	0.000000	0.000000	0.000000	0.000000
1.255500	0.000000	0.000000	0.000000	0.000000	0.000000	0.000000	0.000000	0.000000	0.000000	0.000000	0.000000	0.000000	0.000000	0.000000	0.000000	0.000000	0.000000	0.000000	150.626577	532.457525	-7.945094	0.235969	0.000000	0.178891	-0.000000	1.298069	0.000000	-46.040317	296.380506	-24.882793	0.848449	0.000000	0.105077	-0.000000	-0.371830	0.000000	0.000000	0.000000	0.000000	0.000000	0.000000	0.000000	0.000000	0.000000	0.000000
1.256000	0.000000	0.000000	0.000000	0.000000	0.000000	0.000000	0.000000	0.000000	0.000000	0.000000	0.000000	0.000000	0.000000	0.000000	0.000000	0.000000	0.000000	0.000000	150.623791	529.350467	-7.788538	0.235989	0.000000	0.178908	-0.000000	1.282834	0.000000	-47.304676	302.060357	-25.369244	0.848648	0.000000	0.105060	-0.000000	-0.379935	0.000000	0.000000	0.000000	0.000000	0.000000	0.000000	0.000000	0.000000	0.000000	0.000000
1.256500	0.000000	0.000000	0.000000	0.000000	0.000000	0.000000	0.000000	0.000000	0.000000	0.000000	0.000000	0.000000	0.000000	0.000000	0.000000	0.000000	0.000000	0.000000	150.597820	526.193749	-7.627623	0.236009	0.000000	0.178924	-0.000000	1.267685	0.000000	-48.546542	307.434416	-25.830483	0.848848	0.000000	0.105043	-0.000000	-0.386687	0.000000	0.000000	0.000000	0.000000	0.000000	0.000000	0.000000	0.000000	0.000000	0.000000
1.257000	0.000000	0.000000	0.000000	0.000000	0.000000	0.000000	0.000000	0.000000	0.000000	0.000000	0.000000	0.000000	0.000000	0.000000	0.000000	0.000000	0.000000	0.000000	150.548187	522.987005	-7.462435	0.236029	0.000000	0.178940	-0.000000	1.252624	0.000000	-49.766747	312.511293	-26.266327	0.849049	0.000000	0.105025	-0.000000	-0.392104	0.000000	0.000000	0.000000	0.000000	0.000000	0.000000	0.000000	0.000000	0.000000	0.000000
1.257500	0.000000	0.000000	0.000000	0.000000	0.000000	0.000000	0.000000	0.000000	0.000000	0.000000	0.000000	0.000000	0.000000	0.000000	0.000000	0.000000	0.000000	0.000000	150.474428	519.729878	-7.293065	0.236049	0.000000	0.178956	-0.000000	1.237654	0.000000	-50.966151	317.300376	-26.676739	0.849251	0.000000	0.105006	-0.000000	-0.396203	-0.000000	0.000000	0.000000	0.000000	0.000000	0.000000	0.000000	0.000000	0.000000	0.000000
1.258000	0.000000	0.000000	0.000000	0.000000	0.000000	0.000000	0.000000	0.000000	0.000000	0.000000	0.000000	0.000000	0.000000	0.000000	0.000000	0.000000	0.000000	0.000000	150.376094	516.422033	-7.119607	0.236070	0.000000	0.178971	-0.000000	1.222778	0.000000	-52.145615	321.811576	-27.061808	0.849454	0.000000	0.104987	-0.000000	-0.399005	-0.000000	0.000000	0.000000	0.000000	0.000000	0.000000	0.000000	0.000000	0.000000	0.000000
1.258500	0.000000	0.000000	0.000000	0.000000	0.000000	0.000000	0.000000	0.000000	0.000000	0.000000	0.000000	0.000000	0.000000	0.000000	0.000000	0.000000	0.000000	0.000000	150.252746	513.063171	-6.942171	0.236092	0.000000	0.178986	-0.000000	1.208003	0.000000	-53.305976	326.055114	-27.421723	0.849657	0.000000	0.104966	-0.000000	-0.400532	-0.000000	0.000000	0.000000	0.000000	0.000000	0.000000	0.000000	0.000000	0.000000	0.000000
1.259000	0.000000	0.000000	0.000000	0.000000	0.000000	0.000000	0.000000	0.000000	0.000000	0.000000	0.000000	0.000000	0.000000	0.000000	0.000000	0.000000	0.000000	0.000000	150.103955	509.653028	-6.760877	0.236114	0.000000	0.179001	-0.000000	1.193335	0.000000	-54.448029	330.041327	-27.756755	0.849861	0.000000	0.104945	-0.000000	-0.400811	-0.000000	0.000000	0.000000	0.000000	0.000000	0.000000	0.000000	0.000000	0.000000	0.000000
1.259500	0.000000	0.000000	0.000000	0.000000	0.000000	0.000000	0.000000	0.000000	0.000000	0.000000	0.000000	0.000000	0.000000	0.000000	0.000000	0.000000	0.000000	0.000000	149.929301	506.191378	-6.575861	0.236137	0.000000	0.179015	-0.000000	1.178778	0.000000	-55.572510	333.780503	-28.067233	0.850064	0.000000	0.104923	-0.000000	-0.399869	-0.000000	0.000000	0.000000	0.000000	0.000000	0.000000	0.000000	0.000000	0.000000	0.000000
1.260000	0.000000	0.000000	0.000000	0.000000	0.000000	0.000000	0.000000	0.000000	0.000000	0.000000	0.000000	0.000000	0.000000	0.000000	0.000000	0.000000	0.000000	0.000000	149.728372	502.678034	-6.387267	0.236160	0.000000	0.179029	-0.000000	1.164338	0.000000	-56.680074	337.282747	-28.353534	0.850268	0.000000	0.104901	-0.000000	-0.397737	-0.000000	0.000000	0.000000	0.000000	0.000000	0.000000	0.000000	0.000000	0.000000	0.000000
